# xmcd
#
# Track frame offsets:
#	150
#	13675
#	27962
#	49022
#	63075
#	72645
#	89455
#	103065
#	116375
#	129725
#	144042
#	157740
#	173905
#	186105
#	193340
#	204525
#	218070
#	231825
#	252877
#
# Disc length: 3433 seconds
#
# Revision: 1
# Processed by: cddbd v1.5PL3 Copyright (c) Steve Scherf et al.
# Submitted via: CDex 1.50Beta5
#
DISCID=0a0d6713
DTITLE=渡辺岳夫・他 - 機動戦士ガンダム 戦場で
DYEAR=1900
DGENRE=Soundtrack
TTITLE0=シャアが来る
TTITLE1=きらめきのララァ
TTITLE2=いまはおやすみ
TTITLE3=孤空での遭遇
TTITLE4=迎撃の戦士たち
TTITLE5=銀翼をきらめかせて
TTITLE6=艦隊宇宙へ
TTITLE7=ジオンの胎動
TTITLE8=戦場を疾風のように
TTITLE9=ソーラ・レイ
TTITLE10=邂逅ニュータイプ
TTITLE11=再生のための終焉
TTITLE12=宇宙よ
TTITLE13=翔べ!ガンダム (TVサイズ)
TTITLE14=ブリッジ・コレクション
TTITLE15=シャアが来る (レコードサイズ・カラオケ)
TTITLE16=きらめきのララァ (レコードサイズ・カラオケ)
TTITLE17=いまはおやすみ (レコードサイズ・カラオケ)
TTITLE18=永遠にアムロ (TVサイズ)
EXTD=
EXTT0=
EXTT1=
EXTT2=
EXTT3=
EXTT4=
EXTT5=
EXTT6=
EXTT7=
EXTT8=
EXTT9=
EXTT10=
EXTT11=
EXTT12=
EXTT13=
EXTT14=
EXTT15=
EXTT16=
EXTT17=
EXTT18=
PLAYORDER=
